<svg xmlns="http://www.w3.org/2000/svg" version="1.1" xmlns:xlink="http://www.w3.org/1999/xlink" width="512" height="512" x="0" y="0" viewBox="0 0 66 66" style="enable-background:new 0 0 512 512" xml:space="preserve" class=""><g><path d="M23.62 23.36a11.38 11.38 0 0 0-1.75 3.88L19 27.6v3.81l2.7.34c.25 1.56.81 3.01 1.62 4.29l-1.57 2.01 2.7 2.7 1.92-1.49c1.3.93 2.8 1.59 4.42 1.91l.3 2.33h3.81l.3-2.33c1.62-.32 3.12-.98 4.42-1.91l1.92 1.49 2.7-2.7-1.57-2.01a11.37 11.37 0 0 0 1.62-4.29l2.71-.34V27.6l-2.88-.36a11.38 11.38 0 0 0-1.75-3.88l1.87-2.4-2.7-2.7-2.51 1.95c-1.13-.7-2.38-1.23-3.73-1.5l-.4-3.21h-3.81l-.4 3.21c-1.35.27-2.6.8-3.73 1.5l-2.51-1.95-2.7 2.7zm9.38.63c3.28 0 5.93 2.66 5.93 5.94s-2.65 5.94-5.93 5.94c-3.29 0-5.94-2.66-5.94-5.94s2.65-5.94 5.94-5.94zM8 53.5c0 2.21 1.79 4 4 4h42c2.21 0 4-1.79 4-4v-2H8zM46 62.5h-4v-3H24v3h-4c-.56 0-1 .45-1 1 0 .56.44 1 1 1h26c.55 0 1-.44 1-1 0-.55-.45-1-1-1zM45.02 10.5H49c.06 0 .11-.02.17-.03A2.993 2.993 0 0 0 55 9.51c0-1.66-1.34-3-3-3-1.32 0-2.42.85-2.83 2.03A.471.471 0 0 0 49 8.5h-4.98c-.55 0-1 .45-1 1v7.41l2 2.01zM58 14.5c-1.32 0-2.42.85-2.83 2.03-.06-.01-.11-.03-.17-.03h-4c-.56 0-1 .45-1 1v11h-1v2h2c.55 0 1-.44 1-1v-11h3c.06 0 .11-.02.17-.03a2.993 2.993 0 0 0 5.83-.96c0-1.66-1.34-3.01-3-3.01zM10.83 18.46c.06.01.11.03.18.03h3v11c0 .56.44 1 1 1h2v-2h-1v-11c0-.55-.45-1-1-1h-4c-.06 0-.12.02-.18.04-.41-1.18-1.51-2.03-2.83-2.03-1.66 0-3 1.34-3 3s1.34 3 3 3c1.32 0 2.43-.85 2.83-2.04zM14 12.5c1.32 0 2.43-.86 2.83-2.04.06.01.11.03.18.03h3.97v8.42l2-2.01V9.5c0-.55-.45-1-1-1H17c-.06 0-.12.02-.18.04-.4-1.19-1.5-2.04-2.82-2.04-1.66 0-3 1.34-3 3s1.34 3 3 3zM32.06 7.34c-.03.08-.06.16-.06.25v5.91h2V7.59c0-.09-.03-.17-.05-.25C35.14 6.93 36 5.82 36 4.5c0-1.66-1.34-3-3-3a2.996 2.996 0 0 0-.94 5.84z" fill="#001f3f" opacity="1" data-original="#000000" class=""></path><path d="M54 23.5v6c0 1.66-1.35 3-3 3h-2v.67l-3.06.39c-.22.79-.51 1.56-.88 2.29l1.85 2.36-5.2 5.2-2.21-1.71c-.79.44-1.62.8-2.49 1.07l-.35 2.73h-7.33l-.35-2.73c-.87-.27-1.7-.63-2.49-1.07l-2.21 1.71-5.19-5.2 1.84-2.36c-.37-.73-.66-1.5-.88-2.29L17 33.17v-.67h-2c-1.66 0-3-1.34-3-3v-6c-1.11 0-2.11.45-2.83 1.17C8.45 25.4 8 26.4 8 27.5v22h50v-22c0-2.2-1.8-4-4-4z" fill="#001f3f" opacity="1" data-original="#000000" class=""></path></g></svg>